<mxfile host="app.diagrams.net" modified="2024-03-28T11:56:01.582Z" agent="Mozilla/5.0 (Windows NT 10.0; Win64; x64) AppleWebKit/537.36 (KHTML, like Gecko) Chrome/123.0.0.0 Safari/537.36" etag="pEQfeUYaBGQEkitlFBJP" version="24.2.0" type="device">
  <diagram name="Pagina-1" id="o18fu6mycU1vf4CUdnJV">
    <mxGraphModel dx="989" dy="514" grid="1" gridSize="10" guides="1" tooltips="1" connect="1" arrows="1" fold="1" page="1" pageScale="1" pageWidth="827" pageHeight="1169" math="0" shadow="0">
      <root>
        <mxCell id="0" />
        <mxCell id="1" parent="0" />
        <mxCell id="XW5ZDLdpA1U7L0Ahk8as-2" value="" style="endArrow=none;html=1;rounded=0;entryX=0.5;entryY=1;entryDx=0;entryDy=0;exitX=0.3;exitY=0.086;exitDx=0;exitDy=0;exitPerimeter=0;" edge="1" parent="1" source="XW5ZDLdpA1U7L0Ahk8as-3" target="XW5ZDLdpA1U7L0Ahk8as-5">
          <mxGeometry width="50" height="50" relative="1" as="geometry">
            <mxPoint x="550" y="440" as="sourcePoint" />
            <mxPoint x="417.5355339059329" y="228.53553390593277" as="targetPoint" />
          </mxGeometry>
        </mxCell>
        <mxCell id="XW5ZDLdpA1U7L0Ahk8as-3" value="" style="ellipse;whiteSpace=wrap;html=1;aspect=fixed;" vertex="1" parent="1">
          <mxGeometry x="540" y="440" width="30" height="30" as="geometry" />
        </mxCell>
        <mxCell id="XW5ZDLdpA1U7L0Ahk8as-5" value="" style="rounded=0;whiteSpace=wrap;html=1;" vertex="1" parent="1">
          <mxGeometry x="354" y="170" width="120" height="60" as="geometry" />
        </mxCell>
        <mxCell id="XW5ZDLdpA1U7L0Ahk8as-6" value="" style="endArrow=none;dashed=1;html=1;dashPattern=1 3;strokeWidth=2;rounded=0;entryX=0.5;entryY=1;entryDx=0;entryDy=0;" edge="1" parent="1" target="XW5ZDLdpA1U7L0Ahk8as-5">
          <mxGeometry width="50" height="50" relative="1" as="geometry">
            <mxPoint x="414" y="510" as="sourcePoint" />
            <mxPoint x="390" y="310" as="targetPoint" />
          </mxGeometry>
        </mxCell>
        <mxCell id="XW5ZDLdpA1U7L0Ahk8as-9" value="&lt;p style=&quot;line-height: 140%;&quot;&gt;&lt;font style=&quot;font-size: 8px;&quot;&gt;sensor&lt;/font&gt;&lt;/p&gt;" style="rhombus;whiteSpace=wrap;html=1;fillColor=#f5f5f5;fontColor=#333333;strokeColor=#666666;" vertex="1" parent="1">
          <mxGeometry x="394" y="510" width="40" height="40" as="geometry" />
        </mxCell>
        <mxCell id="XW5ZDLdpA1U7L0Ahk8as-8" value="" style="curved=1;endArrow=classic;html=1;rounded=0;dashed=1;" edge="1" parent="1">
          <mxGeometry width="50" height="50" relative="1" as="geometry">
            <mxPoint x="539" y="470" as="sourcePoint" />
            <mxPoint x="279" y="470" as="targetPoint" />
            <Array as="points">
              <mxPoint x="479" y="520" />
              <mxPoint x="349" y="520" />
            </Array>
          </mxGeometry>
        </mxCell>
        <mxCell id="XW5ZDLdpA1U7L0Ahk8as-10" value="" style="shape=link;html=1;rounded=0;" edge="1" parent="1">
          <mxGeometry width="100" relative="1" as="geometry">
            <mxPoint x="304" y="595" as="sourcePoint" />
            <mxPoint x="414" y="555" as="targetPoint" />
            <Array as="points">
              <mxPoint x="414" y="595" />
            </Array>
          </mxGeometry>
        </mxCell>
        <mxCell id="XW5ZDLdpA1U7L0Ahk8as-11" value="Arduino" style="shape=hexagon;perimeter=hexagonPerimeter2;whiteSpace=wrap;html=1;fixedSize=1;" vertex="1" parent="1">
          <mxGeometry x="200" y="565" width="100" height="60" as="geometry" />
        </mxCell>
        <mxCell id="XW5ZDLdpA1U7L0Ahk8as-12" value="" style="endArrow=none;dashed=1;html=1;dashPattern=1 3;strokeWidth=2;rounded=0;entryX=0.5;entryY=1;entryDx=0;entryDy=0;" edge="1" parent="1" target="XW5ZDLdpA1U7L0Ahk8as-5">
          <mxGeometry width="50" height="50" relative="1" as="geometry">
            <mxPoint x="270" y="470" as="sourcePoint" />
            <mxPoint x="360" y="420" as="targetPoint" />
          </mxGeometry>
        </mxCell>
      </root>
    </mxGraphModel>
  </diagram>
</mxfile>
